# xmcd
#
# Track frame offsets: 
#        150
#        14981
#        33555
#        47409
#        62609
#        78387
#        91710
#        112925
#        135348
#        151063
#        169456
#        183735
#        198199
#        209686
#
# Disc length: 2970 seconds
#
# Revision: 0
# Processed by: cddbd v1.5.2PL0 Copyright (c) Steve Scherf et al.
# Submitted via: ExactAudioCopy v0.99pb5
#
DISCID=b80b980e
DTITLE=Cheryl Ladd - The Best of Cheryl Ladd
DYEAR=1981
DGENRE=Ballad
TTITLE0=Take A Chance
TTITLE1=Just Another Lover Tonight
TTITLE2=Walking In The Rain
TTITLE3=Think It Over
TTITLE4=Better Day
TTITLE5=He's Looking More Everyday Like The Man Who Broke My Heart
TTITLE6=Thunder In The Distance
TTITLE7=Where Is Someone To Love Me
TTITLE8=Dance Forever
TTITLE9=You Make It Beautiful
TTITLE10=Teach Me Tonight
TTITLE11=Country Love
TTITLE12=Sakura Sakura
TTITLE13=You're The Only One I Ever Needed
EXTD=
EXTT0=
EXTT1=
EXTT2=
EXTT3=
EXTT4=
EXTT5=
EXTT6=
EXTT7=
EXTT8=
EXTT9=
EXTT10=
EXTT11=
EXTT12=
EXTT13=
PLAYORDER=
